<?xml version="1.0" standalone="no"?>
<!DOCTYPE svg PUBLIC "-//W3C//DTD SVG 20010904//EN"
 "http://www.w3.org/TR/2001/REC-SVG-20010904/DTD/svg10.dtd">
<svg version="1.0" xmlns="http://www.w3.org/2000/svg"
 width="512.000000pt" height="512.000000pt" viewBox="0 0 512.000000 512.000000"
 preserveAspectRatio="xMidYMid meet">

<g transform="translate(0.000000,512.000000) scale(0.100000,-0.100000)"
fill="#000000" stroke="none">
<path d="M2464 3669 c-77 -13 -172 -50 -236 -93 -97 -64 -162 -144 -224 -275
-30 -64 -62 -131 -72 -150 l-17 -34 -185 -37 c-460 -93 -834 -212 -1130 -360
-128 -64 -279 -162 -324 -209 l-30 -31 235 0 235 0 15 -32 c27 -61 119 -60
140 2 11 30 11 30 89 30 76 0 78 0 90 -29 6 -16 25 -35 41 -41 39 -17 83 2 99
41 12 29 14 29 90 29 76 0 78 0 90 -29 25 -62 115 -62 140 0 12 29 14 29 90
29 76 0 78 0 90 -29 6 -16 25 -35 41 -41 39 -17 83 2 99 41 l12 29 1319 0
1319 0 200 401 201 400 -38 -6 c-77 -14 -232 -73 -311 -119 -95 -55 -213 -162
-284 -256 -28 -36 -71 -110 -98 -165 -26 -55 -57 -108 -68 -118 -36 -33 -84
-32 -207 4 l-115 34 0 159 0 159 -56 -6 c-80 -8 -156 -49 -241 -130 l-73 -70
-158 47 c-688 204 -651 192 -688 227 -56 54 -57 74 -24 344 16 132 32 252 35
268 5 31 0 31 -91 16z"/>
</g>
</svg>
